<?xml version="1.0" encoding="utf-8"?>
<!-- Generator: Adobe Illustrator 19.2.1, SVG Export Plug-In . SVG Version: 6.00 Build 0)  -->
<svg version="1.1" id="Layer_1" xmlns="http://www.w3.org/2000/svg" xmlns:xlink="http://www.w3.org/1999/xlink" x="0px" y="0px"
	 viewBox="0 0 45.7 44.2" style="enable-background:new 0 0 45.7 44.2;" xml:space="preserve">
<style type="text/css">
	.st0{fill:#CDA758;}
</style>
<g>
	<g>
		<path class="st0" d="M17.4,28.2h-7.1C4.6,28.2,0,23.8,0,18.5c0-2.6,1.1-5,3-6.8C4.9,10,7.3,9,9.9,8.9c0,0,0,0,0,0
			c0.7,0,1.2,0.5,1.2,1.2c0,0.7-0.5,1.2-1.2,1.3c-2,0-3.9,0.8-5.3,2.1c-1.4,1.3-2.2,3.1-2.2,5c0,4,3.5,7.2,7.8,7.2h7.1
			c0.7,0,1.2,0.6,1.2,1.2S18.1,28.2,17.4,28.2z"/>
	</g>
	<g>
		<path class="st0" d="M36.2,28.1c-0.6,0-1.2-0.5-1.2-1.1c-0.1-0.7,0.5-1.3,1.1-1.3c4-0.3,7.1-3.4,7.1-7.1c0-3.9-3.4-7.1-7.7-7.2
			c-0.7,0-1.2-0.6-1.2-1.2c0-0.7,0.6-1.2,1.2-1.2c0,0,0,0,0,0c5.6,0.1,10.1,4.4,10.1,9.6C45.7,23.5,41.6,27.7,36.2,28.1
			C36.3,28.1,36.3,28.1,36.2,28.1z"/>
	</g>
	<g>
		<path class="st0" d="M9.9,11.4c0,0-0.1,0-0.1,0c-0.7-0.1-1.2-0.7-1.1-1.4C9.3,4.3,13.7,0,19,0c3.2,0,6.1,1.5,8.1,4.2
			c1-0.6,1.9-0.9,3.1-0.9c3.1,0,6,2.7,6.9,6.5l0,0.3c0,0.7-0.6,1.2-1.2,1.2c-0.6,0-1.1-0.4-1.2-1.1c-0.7-2.7-2.5-4.6-4.5-4.6
			c-0.8,0-1.7,0.3-2.5,1.1l-1.1,1l-0.8-1.3c-1.5-2.6-4-4.1-6.7-4.1c-4,0-7.4,3.4-7.9,7.8C11,10.9,10.5,11.4,9.9,11.4z"/>
	</g>
	<g>
		<path class="st0" d="M10.8,44.2c-3.3,0-6-2.7-6-6c0-1.5,0.6-2.9,1.6-4.1l4.4-4.7l4.4,4.7c1,1.1,1.6,2.6,1.6,4.1
			C16.8,41.5,14.1,44.2,10.8,44.2z M7.9,36.2c-0.4,0.6-0.6,1.3-0.6,2c0,2,1.6,3.5,3.6,3.5s3.5-1.6,3.5-3.5c0-0.7-0.2-1.4-0.6-2h0
			l-0.4-0.5L10.8,33L7.9,36.2z"/>
	</g>
	<g>
		<path class="st0" d="M26.5,40.6c-4.3,0-7.9-3.5-7.9-7.9c0-2,0.7-3.9,2.1-5.3l0,0c0,0,0.1-0.1,0.1-0.1l5.7-6l5.6,5.9l0,0
			c0,0.1,0.1,0.1,0.1,0.2l0.1,0.1c1.3,1.5,2.1,3.4,2.1,5.3C34.3,37.1,30.8,40.6,26.5,40.6z M22.2,29.5c-0.7,0.9-1.1,2.1-1.1,3.3
			c0,3,2.4,5.4,5.4,5.4c3,0,5.4-2.4,5.4-5.4c0-1.2-0.4-2.3-1.1-3.3h-0.1L30.4,29l-3.9-4.1L22.2,29.5z"/>
	</g>
</g>
</svg>
