<svg id="Layer_1" data-name="Layer 1" xmlns="http://www.w3.org/2000/svg" viewBox="0 0 63.36 63.36"><defs><style>.cls-1{fill:#cda758;}</style></defs><title>sun</title><path class="cls-1" d="M38.71,23A13.67,13.67,0,1,0,52.39,36.63,13.69,13.69,0,0,0,38.71,23Zm0,25A11.28,11.28,0,1,1,50,36.63,11.29,11.29,0,0,1,38.71,47.9Z" transform="translate(-6.82 -5.32)"/><path class="cls-1" d="M38.71,50.65a14,14,0,1,1,14-14A14,14,0,0,1,38.71,50.65Zm0-27.34A13.32,13.32,0,1,0,52,36.63,13.34,13.34,0,0,0,38.71,23.3Zm0,25A11.63,11.63,0,1,1,50.34,36.63,11.64,11.64,0,0,1,38.71,48.25Zm0-22.56A10.93,10.93,0,1,0,49.64,36.63,10.94,10.94,0,0,0,38.71,25.7Z" transform="translate(-6.82 -5.32)"/><path class="cls-1" d="M68.54,38.29H58.2a1.29,1.29,0,1,1,0-2.58H68.54A1.29,1.29,0,0,1,68.54,38.29Z" transform="translate(-6.82 -5.32)"/><path class="cls-1" d="M68.54,38.64H58.2a1.64,1.64,0,0,1,0-3.28H68.54A1.64,1.64,0,0,1,68.54,38.64ZM58.2,36.06a0.94,0.94,0,1,0,0,1.88H68.54a0.94,0.94,0,1,0,0-1.88H58.2Z" transform="translate(-6.82 -5.32)"/><path class="cls-1" d="M38.82,68.33A1.29,1.29,0,0,1,37.53,67v-11a1.29,1.29,0,0,1,2.58,0V67A1.29,1.29,0,0,1,38.82,68.33Z" transform="translate(-6.82 -5.32)"/><path class="cls-1" d="M38.82,68.68A1.64,1.64,0,0,1,37.18,67v-11a1.64,1.64,0,0,1,3.28,0V67A1.64,1.64,0,0,1,38.82,68.68Zm0-13.57a0.94,0.94,0,0,0-.94.94V67a0.94,0.94,0,0,0,1.88,0v-11A0.94,0.94,0,0,0,38.82,55.11Z" transform="translate(-6.82 -5.32)"/><path class="cls-1" d="M19.44,38.29h-11a1.29,1.29,0,1,1,0-2.58h11A1.29,1.29,0,1,1,19.44,38.29Z" transform="translate(-6.82 -5.32)"/><path class="cls-1" d="M19.44,38.64h-11a1.64,1.64,0,1,1,0-3.28h11A1.64,1.64,0,1,1,19.44,38.64Zm-11-2.58a0.94,0.94,0,1,0,0,1.88h11a0.94,0.94,0,0,0,0-1.88h-11Z" transform="translate(-6.82 -5.32)"/><path class="cls-1" d="M38.82,18.59a1.29,1.29,0,0,1-1.29-1.29V7a1.29,1.29,0,0,1,2.58,0V17.3A1.29,1.29,0,0,1,38.82,18.59Z" transform="translate(-6.82 -5.32)"/><path class="cls-1" d="M38.82,18.94a1.64,1.64,0,0,1-1.64-1.64V7a1.64,1.64,0,1,1,3.28,0V17.3A1.64,1.64,0,0,1,38.82,18.94ZM38.82,6a0.94,0.94,0,0,0-.94.94V17.3a0.94,0.94,0,0,0,1.88,0V7A0.94,0.94,0,0,0,38.82,6Z" transform="translate(-6.82 -5.32)"/><path class="cls-1" d="M58.11,57.24a1.29,1.29,0,0,1-.91-0.38L51.5,51.17a1.29,1.29,0,1,1,1.83-1.83L59,55A1.29,1.29,0,0,1,58.11,57.24Z" transform="translate(-6.82 -5.32)"/><path class="cls-1" d="M58.11,57.59a1.63,1.63,0,0,1-1.16-.48l-5.69-5.69a1.65,1.65,0,0,1,0-2.32,1.68,1.68,0,0,1,2.32,0l5.69,5.69A1.64,1.64,0,0,1,58.11,57.59Zm-5.69-8.28a0.94,0.94,0,0,0-.67,1.61l5.69,5.69a1,1,0,0,0,1.33,0,0.94,0.94,0,0,0,0-1.33l-5.69-5.69A0.94,0.94,0,0,0,52.42,49.31Z" transform="translate(-6.82 -5.32)"/><path class="cls-1" d="M17.61,59.34a1.29,1.29,0,0,1-.91-2.21l7.79-7.79a1.29,1.29,0,1,1,1.83,1.83L18.53,59A1.29,1.29,0,0,1,17.61,59.34Z" transform="translate(-6.82 -5.32)"/><path class="cls-1" d="M17.61,59.69a1.64,1.64,0,0,1-1.16-2.8l7.79-7.79a1.64,1.64,0,1,1,2.32,2.32l-7.79,7.79A1.63,1.63,0,0,1,17.61,59.69Zm7.79-10.37a0.94,0.94,0,0,0-.67.28l-7.79,7.79a1,1,0,0,0,0,1.33,1,1,0,0,0,1.33,0l7.79-7.79A0.94,0.94,0,0,0,25.41,49.31Z" transform="translate(-6.82 -5.32)"/><path class="cls-1" d="M25.41,24.54a1.29,1.29,0,0,1-.91-0.38L19.7,19.36a1.29,1.29,0,1,1,1.83-1.83l4.79,4.79A1.29,1.29,0,0,1,25.41,24.54Z" transform="translate(-6.82 -5.32)"/><path class="cls-1" d="M25.41,24.89a1.63,1.63,0,0,1-1.16-.48l-4.79-4.79a1.65,1.65,0,0,1,0-2.32,1.68,1.68,0,0,1,2.32,0l4.79,4.79A1.64,1.64,0,0,1,25.41,24.89Zm-4.79-7.38a0.94,0.94,0,0,0-.67,1.61l4.79,4.79a1,1,0,0,0,1.33,0,0.94,0.94,0,0,0,0-1.33l-4.79-4.79A0.94,0.94,0,0,0,20.61,17.51Z" transform="translate(-6.82 -5.32)"/><path class="cls-1" d="M52.42,24.54a1.29,1.29,0,0,1-.91-2.21l7.79-7.79a1.29,1.29,0,0,1,1.83,1.83l-7.79,7.79A1.29,1.29,0,0,1,52.42,24.54Z" transform="translate(-6.82 -5.32)"/><path class="cls-1" d="M52.42,24.89a1.64,1.64,0,0,1-1.16-2.8L59,14.29a1.68,1.68,0,0,1,2.32,0,1.64,1.64,0,0,1,0,2.32l-7.79,7.79A1.64,1.64,0,0,1,52.42,24.89Zm7.79-10.38a0.94,0.94,0,0,0-.67.28l-7.79,7.79a0.94,0.94,0,0,0,0,1.33,1,1,0,0,0,1.33,0l7.79-7.79A0.94,0.94,0,0,0,60.21,14.51Z" transform="translate(-6.82 -5.32)"/><path class="cls-1" d="M66.72,49.62a1.3,1.3,0,0,1-.5-0.1L56,45.29a1.29,1.29,0,1,1,1-2.39l10.17,4.24A1.29,1.29,0,0,1,66.72,49.62Z" transform="translate(-6.82 -5.32)"/><path class="cls-1" d="M66.72,50a1.65,1.65,0,0,1-.63-0.13L55.91,45.61a1.64,1.64,0,0,1,1.26-3l10.17,4.24A1.64,1.64,0,0,1,66.72,50ZM56.54,43.15a0.94,0.94,0,0,0-.87,1.3,0.93,0.93,0,0,0,.51.51L66.35,49.2a1,1,0,0,0,1.23-.51,0.94,0.94,0,0,0-.51-1.23L56.91,43.23A0.94,0.94,0,0,0,56.54,43.15Z" transform="translate(-6.82 -5.32)"/><path class="cls-1" d="M28.57,62.87a1.29,1.29,0,0,1-1.19-1.79l3-7.19a1.29,1.29,0,1,1,2.38,1l-3,7.19A1.29,1.29,0,0,1,28.57,62.87Z" transform="translate(-6.82 -5.32)"/><path class="cls-1" d="M28.57,63.22a1.64,1.64,0,0,1-1.52-2.27l3-7.19a1.64,1.64,0,1,1,3,1.26l-3,7.19A1.64,1.64,0,0,1,28.57,63.22Zm3-9.78a1,1,0,0,0-.36.07,0.94,0.94,0,0,0-.51.51l-3,7.19a0.94,0.94,0,0,0,.51,1.23,1,1,0,0,0,1.23-.51l3-7.19A0.94,0.94,0,0,0,31.57,53.44Z" transform="translate(-6.82 -5.32)"/><path class="cls-1" d="M21.28,30.7a1.28,1.28,0,0,1-.5-0.1L10.61,26.36a1.29,1.29,0,1,1,1-2.39l10.17,4.24A1.29,1.29,0,0,1,21.28,30.7Z" transform="translate(-6.82 -5.32)"/><path class="cls-1" d="M21.28,31a1.63,1.63,0,0,1-.63-0.13L10.48,26.68a1.64,1.64,0,1,1,1.26-3l10.17,4.24A1.64,1.64,0,0,1,21.28,31ZM11.11,24.23A0.94,0.94,0,0,0,10.75,26l10.17,4.24a1,1,0,0,0,1.23-.51,0.94,0.94,0,0,0-.51-1.23L11.47,24.3A0.93,0.93,0,0,0,11.11,24.23Z" transform="translate(-6.82 -5.32)"/><path class="cls-1" d="M46.26,20.41a1.29,1.29,0,0,1-1.19-1.79L49.3,8.45a1.29,1.29,0,0,1,2.39,1L47.45,19.61A1.29,1.29,0,0,1,46.26,20.41Z" transform="translate(-6.82 -5.32)"/><path class="cls-1" d="M46.26,20.76a1.64,1.64,0,0,1-1.52-2.27L49,8.31a1.64,1.64,0,0,1,3,1.26L47.77,19.75A1.64,1.64,0,0,1,46.26,20.76ZM50.5,8a0.94,0.94,0,0,0-.87.58L45.39,18.76A0.94,0.94,0,0,0,45.89,20a1,1,0,0,0,1.23-.51L51.36,9.31A0.94,0.94,0,0,0,50.5,8Z" transform="translate(-6.82 -5.32)"/><path class="cls-1" d="M50.38,65.89a1.29,1.29,0,0,1-1.2-.8L45,54.9a1.29,1.29,0,0,1,2.39-1l4.2,10.19A1.29,1.29,0,0,1,50.38,65.89Z" transform="translate(-6.82 -5.32)"/><path class="cls-1" d="M50.38,66.24a1.64,1.64,0,0,1-1.52-1L44.67,55a1.64,1.64,0,0,1,3-1.25L51.9,64A1.64,1.64,0,0,1,50.38,66.24Zm-4.2-12.77a0.93,0.93,0,0,0-.36.07,0.94,0.94,0,0,0-.51,1.23L49.51,65a1,1,0,0,0,1.23.51,0.94,0.94,0,0,0,.51-1.23l-4.2-10.19A1,1,0,0,0,46.18,53.47Z" transform="translate(-6.82 -5.32)"/><path class="cls-1" d="M11.06,49.51A1.29,1.29,0,0,1,10.57,47l10.19-4.2a1.29,1.29,0,0,1,1,2.39l-10.19,4.2A1.3,1.3,0,0,1,11.06,49.51Z" transform="translate(-6.82 -5.32)"/><path class="cls-1" d="M11.06,49.86a1.64,1.64,0,0,1-.63-3.16l10.19-4.2a1.64,1.64,0,0,1,2.14.89,1.64,1.64,0,0,1-.89,2.14l-10.19,4.2A1.64,1.64,0,0,1,11.06,49.86Zm10.19-6.78a0.93,0.93,0,0,0-.36.07L10.7,47.35a0.94,0.94,0,0,0-.51,1.23,1,1,0,0,0,1.23.51l10.19-4.2A0.94,0.94,0,0,0,21.25,43.08Z" transform="translate(-6.82 -5.32)"/><path class="cls-1" d="M31.64,20.38a1.29,1.29,0,0,1-1.2-.8L26.25,9.39a1.29,1.29,0,0,1,2.39-1l4.2,10.19a1.29,1.29,0,0,1-.7,1.69A1.26,1.26,0,0,1,31.64,20.38Z" transform="translate(-6.82 -5.32)"/><path class="cls-1" d="M31.64,20.73a1.64,1.64,0,0,1-1.52-1L25.92,9.53a1.64,1.64,0,1,1,3-1.25l4.2,10.19a1.64,1.64,0,0,1-.89,2.14A1.6,1.6,0,0,1,31.64,20.73ZM27.44,8a0.94,0.94,0,0,0-.87,1.3l4.2,10.19A1,1,0,0,0,32,20a0.94,0.94,0,0,0,.52-1.23L28.31,8.54A0.94,0.94,0,0,0,27.44,8Z" transform="translate(-6.82 -5.32)"/><path class="cls-1" d="M56.57,30.77a1.29,1.29,0,0,1-.49-2.49l7.32-3a1.29,1.29,0,1,1,1,2.39l-7.32,3A1.27,1.27,0,0,1,56.57,30.77Z" transform="translate(-6.82 -5.32)"/><path class="cls-1" d="M56.57,31.12A1.64,1.64,0,0,1,55.95,28l7.32-3a1.64,1.64,0,1,1,1.25,3L57.2,31A1.61,1.61,0,0,1,56.57,31.12Zm7.32-5.6a0.93,0.93,0,0,0-.36.07l-7.32,3a0.94,0.94,0,0,0-.51,1.23,1,1,0,0,0,1.23.51l7.32-3A0.94,0.94,0,0,0,63.89,25.52Z" transform="translate(-6.82 -5.32)"/></svg>